<svg width="80" height="80" viewBox="0 0 80 80" fill="none" xmlns="http://www.w3.org/2000/svg">
<circle cx="40" cy="40" r="39" fill="white" stroke="#F1F5FA" stroke-width="2"/>
<path d="M47.4707 22H32.5298C31.2005 22 30.1191 23.0813 30.1191 24.4107V55.5893C30.1191 56.9186 31.2005 58 32.5298 58H47.4707C48.7999 58 49.8813 56.9187 49.8813 55.5893V24.4107C49.8813 23.0813 48.8 22 47.4707 22ZM48.9809 55.5893C48.9809 56.4223 48.3032 57.1 47.4702 57.1H32.5298C31.6969 57.1 31.0191 56.4223 31.0191 55.5893V51.5227H48.9809V55.5893ZM48.9809 50.6227H31.0191V26.9882H48.9809V50.6227ZM48.9809 26.0882H31.0191V24.4107C31.0191 23.5777 31.6969 22.9 32.5298 22.9H47.4702C48.3032 22.9 48.9809 23.5777 48.9809 24.4107V26.0882Z" fill="#00AD84"/>
<path d="M40.0001 52.5365C38.9786 52.5365 38.1475 53.3677 38.1475 54.3891C38.1475 55.4106 38.9786 56.2414 40.0001 56.2414C41.0216 56.2414 41.8528 55.4102 41.8528 54.3887C41.8528 53.3672 41.0216 52.5365 40.0001 52.5365ZM40.0001 55.3418C39.475 55.3418 39.0475 54.9143 39.0475 54.3891C39.0475 53.864 39.475 53.4365 40.0001 53.4365C40.5253 53.4365 40.9528 53.864 40.9528 54.3891C40.9528 54.9143 40.5253 55.3418 40.0001 55.3418Z" fill="#00AD84"/>
</svg>
