<svg width="35" height="34" viewBox="0 0 35 34" fill="none" xmlns="http://www.w3.org/2000/svg">
<path d="M17.5 32.2291C9.09916 32.2291 2.27083 25.4008 2.27083 16.9999C2.27083 8.59909 9.09916 1.77075 17.5 1.77075C25.9008 1.77075 32.7292 8.59909 32.7292 16.9999C32.7292 25.4008 25.9008 32.2291 17.5 32.2291ZM17.5 3.89575C10.275 3.89575 4.39583 9.77492 4.39583 16.9999C4.39583 24.2249 10.275 30.1041 17.5 30.1041C24.725 30.1041 30.6042 24.2249 30.6042 16.9999C30.6042 9.77492 24.725 3.89575 17.5 3.89575Z" fill="#DE2828"/>
<path d="M17.5 19.4791C16.9192 19.4791 16.4375 18.9974 16.4375 18.4166V11.3333C16.4375 10.7524 16.9192 10.2708 17.5 10.2708C18.0808 10.2708 18.5625 10.7524 18.5625 11.3333V18.4166C18.5625 18.9974 18.0808 19.4791 17.5 19.4791Z" fill="#DE2828"/>
<path d="M17.5 24.0833C17.3158 24.0833 17.1317 24.0408 16.9617 23.97C16.7917 23.8992 16.6358 23.8 16.4942 23.6725C16.3667 23.5308 16.2675 23.3892 16.1967 23.205C16.1258 23.035 16.0833 22.8508 16.0833 22.6667C16.0833 22.4825 16.1258 22.2983 16.1967 22.1283C16.2675 21.9583 16.3667 21.8025 16.4942 21.6608C16.6358 21.5333 16.7917 21.4342 16.9617 21.3633C17.3017 21.2217 17.6983 21.2217 18.0383 21.3633C18.2083 21.4342 18.3642 21.5333 18.5058 21.6608C18.6333 21.8025 18.7325 21.9583 18.8033 22.1283C18.8742 22.2983 18.9167 22.4825 18.9167 22.6667C18.9167 22.8508 18.8742 23.035 18.8033 23.205C18.7325 23.3892 18.6333 23.5308 18.5058 23.6725C18.3642 23.8 18.2083 23.8992 18.0383 23.97C17.8683 24.0408 17.6842 24.0833 17.5 24.0833Z" fill="#DE2828"/>
</svg>
