<svg width="33" height="32" viewBox="0 0 33 32" fill="none" xmlns="http://www.w3.org/2000/svg">
<path fill-rule="evenodd" clip-rule="evenodd" d="M21.9658 3.73121C19.3202 2.55243 16.3645 2.2604 13.5395 2.89869C10.7144 3.53697 8.17134 5.07137 6.28957 7.27304C4.4078 9.4747 3.28814 12.2257 3.09758 15.1157C2.90701 18.0057 3.65575 20.8798 5.23213 23.3095C6.80851 25.7392 9.12806 27.5943 11.8449 28.598C14.5616 29.6017 17.5301 29.7003 20.3075 28.8791C23.0849 28.0579 25.5225 26.3609 27.2566 24.0412C28.9908 21.7215 29.9286 18.9033 29.9303 16.0071V14.654C29.9303 13.9447 30.5053 13.3698 31.2145 13.3698C31.9238 13.3698 32.4987 13.9447 32.4987 14.654V16.0085C32.4968 19.4587 31.3796 22.8157 29.3138 25.5791C27.248 28.3424 24.3443 30.3639 21.0358 31.3422C17.7272 32.3204 14.1911 32.2029 10.9547 31.0073C7.7184 29.8116 4.95527 27.6018 3.07744 24.7075C1.1996 21.8132 0.307673 18.3893 0.534681 14.9467C0.76169 11.504 2.09547 8.22695 4.3371 5.60425C6.57872 2.98155 9.6081 1.15372 12.9734 0.393376C16.3387 -0.366972 19.8597 -0.0191021 23.0111 1.3851C23.659 1.67377 23.9502 2.43298 23.6615 3.08084C23.3728 3.7287 22.6136 4.01988 21.9658 3.73121Z" fill="#00AD84"/>
<path fill-rule="evenodd" clip-rule="evenodd" d="M32.1233 3.32564C32.625 3.82691 32.6254 4.64004 32.1242 5.14182L17.409 19.8717C17.1682 20.1127 16.8415 20.2482 16.5008 20.2483C16.1601 20.2484 15.8333 20.113 15.5924 19.8721L11.1779 15.4576C10.6763 14.9561 10.6763 14.1429 11.1779 13.6414C11.6794 13.1399 12.4925 13.1399 12.994 13.6414L16.5 17.1474L30.3071 3.32655C30.8084 2.82477 31.6215 2.82437 32.1233 3.32564Z" fill="#00AD84"/>
</svg>
